screens;
 
http://baypic.net/img-51758b9c44fda.html 
 
http://baypic.net/img-51758b9f3a097.html 
 
http://baypic.net/img-51758ba21e81f.html 

Format                                   : MPEG-4
Format profile                           : Base Media / Version 2
Codec ID                                 : mp42
File size                                : 1.29 GiB
Duration                                 : 39mn 49s
Overall bit rate mode                    : Variable
Overall bit rate                         : 4 623 Kbps
Encoded date                             : UTC 2013-04-15 17:06:17
Tagged date                              : UTC 2013-04-15 17:06:17
?TIM                                     : 00:00:00:00
?TSC                                     : 25
?TSZ                                     : 1

Video
ID                                       : 1
Format                                   : AVC
Format/Info                              : Advanced Video Codec
Format profile                           : High@L3.1
Format settings, CABAC                   : Yes
Format settings, ReFrames                : 3 frames
Codec ID                                 : avc1
Codec ID/Info                            : Advanced Video Coding
Duration                                 : 39mn 49s
Bit rate                                 : 4 493 Kbps
Width                                    : 1 280 pixels
Height                                   : 720 pixels
Display aspect ratio                     : 16:9
Frame rate mode                          : Constant
Frame rate                               : 25.000 fps
Standard                                 : PAL
Color space                              : YUV
Chroma subsampling                       : 4:2:0
Bit depth                                : 8 bits
Scan type                                : Progressive
Bits/(Pixel*Frame)                       : 0.195
Stream size                              : 1.25 GiB (97%)
Language                                 : English
Encoded date                             : UTC 2013-04-15 17:06:17
Tagged date                              : UTC 2013-04-15 17:06:17
Color primaries                          : BT.709-5, BT.1361, IEC 61966-2-4, SMPTE RP177
Transfer characteristics                 : BT.709-5, BT.1361
Matrix coefficients                      : BT.709-5, BT.1361, IEC 61966-2-4 709, SMPTE RP177

Audio
ID                                       : 2
Format                                   : AAC
Format/Info                              : Advanced Audio Codec
Format profile                           : LC
Codec ID                                 : 40
Duration                                 : 39mn 49s
Source duration                          : 39mn 49s
Bit rate mode                            : Variable
Bit rate                                 : 125 Kbps
Maximum bit rate                         : 214 Kbps
Channel(s)                               : 2 channels
Channel positions                        : Front: L R
Sampling rate                            : 48.0 KHz
Compression mode                         : Lossy
Stream size                              : 35.7 MiB (3%)
Source stream size                       : 35.7 MiB (3%)
Language                                 : English
Encoded date                             : UTC 2013-04-15 17:06:17
Tagged date                              : UTC 2013-04-15 17:06:17
